<?xml version="1.0" encoding="utf-8"?>
<!-- Generator: Adobe Illustrator 17.0.0, SVG Export Plug-In . SVG Version: 6.00 Build 0)  -->
<!DOCTYPE svg PUBLIC "-//W3C//DTD SVG 1.1//EN" "http://www.w3.org/Graphics/SVG/1.1/DTD/svg11.dtd">
<svg version="1.1" id="Capa_1" xmlns="http://www.w3.org/2000/svg" xmlns:xlink="http://www.w3.org/1999/xlink" x="0px" y="0px"
	 width="348px" height="306px" viewBox="0 0 348 306" enable-background="new 0 0 348 306" xml:space="preserve">
<g>
	<path fill="#FFFFFF" d="M232.191,178.262c6.253,4.586,2.523,9.486,0.134,14.413c4.358,1.245,6.91-0.058,6.85-4.447
		c-0.065-4.718-0.661-9.429-1.026-14.142c8.547,5.843,3.682,13.42,1.706,21.389c4.079-1.159,7.02-2.214,10.052-2.804
		c4.371-0.851,5.57-3.618,5.331-7.599c-0.179-2.989,0.064-6.031-0.394-8.969c-1.313-8.412-7.939-12.809-15.456-10.594
		c-3.572,1.052-5.073,2.98-3.299,6.62c-5.704-0.55-4.061,3.262-3.746,6.281c-4.689-2.415-6.673-1.396-7.079,3.72
		c-0.116,1.467-0.377,3.123,0.153,4.389c0.587,1.399,2.17,3.541,3.026,3.413c1.562-0.235,3.92-1.734,4.138-3.013
		C233.054,184.135,232.39,181.159,232.191,178.262z M293.202,76.145c-6.525-1.088-12.547-3.654-18.566,0.712
		c-4.481,3.25-4.581,6.201,0.091,9.098c3.109,1.928,6.15,3.965,9.222,5.954c1.418-7.829,8.108-5.924,14.027-6.463
		C293.888,83.376,291.412,80.823,293.202,76.145z"/>
	<path fill="#FFFFFF" d="M302.235,77.163c-23.98-14.048-54.518-1.547-59.213,24.675c-2.457,13.722-1.025,28.143-1.285,42.25
		c-0.052,2.826,0.86,5.855,0.105,8.433c-0.794,2.712-2.498,5.985-4.784,7.269c-5.589,3.138-7.924,1.527-9.68-4.571
		c-4-13.895-8.257-27.716-12.373-41.577c-1.451-4.886-4.164-7.498-9.746-7.235c-5.293,0.249-10.639-0.39-15.95-0.8
		c-5.487-0.424-9.373-3.007-11.076-8.525c-0.518-1.679-1.597-3.184-2.951-5.796c-0.378,2.075-0.717,3.073-0.713,4.071
		c0.016,3.903-2.326,4.159-4.982,2.935c-8.156-3.758-16.197-7.764-24.308-11.621c-3.483-1.656-4.15-4.36-3.444-7.878
		c2.243-11.179,4.678-14.282,16.127-7.966c5.833,3.218,10.141,9.199,14.897,13.702c-1.232-5.405,3.407-7.837,7.844-10.932
		c23.908-16.678,50.221-28.738,76.683-40.547c2.546-1.136,5.026-2.419,7.544-3.637c-0.718-4.398-2.622-5.412-6.31-3.803
		c-4.418,1.927-8.967,3.553-13.467,5.288c-7.288,2.81-9.25,1.783-11.886-6.391c4.215-2.109,8.475-4.239,12.876-6.441
		c-4.302-4.814-8.59-6.289-14.157-2.794c-3.419,2.147-7.341,3.494-10.929,5.15c5.135,4.246,9.95,8.226,14.764,12.207
		c-0.208,0.615-0.416,1.231-0.624,1.846c-5.268,2.309-10.367,5.179-15.836,6.818c-13.857,4.152-27.852,7.858-41.864,11.461
		c-2.125,0.546-4.637-0.412-6.97-0.675c0.632-2.498,0.604-5.497,2.037-7.386c2.683-3.535,6.18-6.46,9.402-9.573
		c1.9-1.836,3.922-3.545,6.203-5.593c-6.072-4.337-11.871-6.428-18.882-3.453c-8.064,3.422-16.295,6.451-24.454,9.651
		c0.02,0.577,0.041,1.153,0.061,1.73c3.15,0,6.521,0.725,9.406-0.15c6.191-1.878,12.215-4.392,18.142-7.019
		c3.363-1.49,5.65-1.071,7.646,2.646c-3.721,2.29-7.357,4.845-11.264,6.879c-16.665,8.677-24.039,24.302-30.297,40.641
		c-0.544,1.421,1.213,4.888,2.808,5.777c12.483,6.957,25.144,13.602,37.862,20.124c2.602,1.334,5.657,2.36,8.541,2.463
		c8.624,0.308,14.791,4.479,19.511,11.264c10.084,14.497,15.37,30.911,18.718,48.018c0.399,2.039-0.352,4.716-1.466,6.555
		c-2.79,4.612-3.079,9.214-0.543,13.747c3.208,5.737,2.21,10.807-1.424,15.811c-2.152,2.963-4.443,5.864-6.235,9.039
		c-2.509,4.446-1.428,7.386,3.117,9.828c0.878,0.472,1.766,1.066,2.716,1.24c11.5,2.106,19.755,9.793,28.651,16.439
		c6.268,4.683,12.608,9.301,19.21,13.485c1.919,1.216,4.927,1.386,7.3,1.056c3.421-0.476,6.913-1.45,10-2.973
		c2.119-1.045,3.619-3.364,5.359-5.149c1.463-1.5,2.613-3.505,4.352-4.501c7.939-4.549,16.083-8.74,24.04-13.259
		c1.714-0.973,2.96-2.771,4.421-4.189c-0.383-0.492-0.765-0.984-1.148-1.475c-5.828,2.982-11.665,5.946-17.481,8.95
		c-6.506,3.359-12.975,6.79-19.494,10.124c-5.93,3.033-9.994,0.935-10.154-5.686c-0.81-33.467-1.625-66.937-1.987-100.411
		c-0.096-8.824,3.77-16.484,10.996-22.052c5.669-4.368,11.413-8.641,17.034-13.071c4.853-3.825,6.302-9.075,6.086-16.356
		c-1.012,1.883-1.542,2.58-1.786,3.365c-3.919,12.649-8.903,16.786-22.074,17.736c-7.647,0.551-14.924-0.922-21.424-5.262
		c-6.133-4.095-8.717-9.887-7.904-17.151c0.106-0.95,1.07-1.804,1.636-2.703c0.981,0.704,2.625,1.262,2.817,2.138
		c0.56,2.567,0.541,5.26,0.78,8.303c3.892,2.343,8.148,4.907,12.684,7.638c0.438-0.408,1.335-1.244,2.727-2.541
		c0.272,2.079,0.471,3.602,0.778,5.952c1.187-1.747,2.034-2.993,3.062-4.505c0.651,0.952,1.266,1.851,2.018,2.949
		c0.301-0.895,0.574-1.707,1.392-4.141c0.826,1.985,1.322,3.176,1.817,4.366c0.299-0.179,0.598-0.358,0.897-0.536
		c-0.083-1.464-0.166-2.929-0.292-5.151c1.449,1.291,2.367,2.108,3.409,3.036c0.446-0.623,0.99-1.385,1.726-2.415
		c0.725,1.039,1.342,1.923,2.137,3.062c0.311-1.02,0.566-1.859,0.914-3.002c1.008,0.496,1.971,0.969,3.335,1.64
		c-0.318-1.402-0.574-2.53-0.91-4.009c1.34,0.571,2.338,0.995,3.383,1.44c1.518-4.896,3.03-9.775,4.512-14.554
		c4.272,2.797,9.22,5.788,13.851,9.208c1.547,1.142,2.758,3.244,3.303,5.143c1.513,5.272,3.756,9.9,6.756,14.647
		c3.041,4.811,3.917,11.588,4.039,17.538c0.444,21.659,0.263,43.332,0.132,64.999c-0.051,8.479,0.38,17.144-1.22,25.372
		c-1.249,6.422-4.083,13.363-8.333,18.216c-11.623,13.27-27.602,19.897-44.005,25.318c-4.712,1.557-8.781,0.487-12.89-2.799
		c-9.492-7.59-19.388-14.683-29.246-21.804c-2.238-1.616-4.953-2.602-7.51-3.742c-5.134-2.289-10.531-4.096-15.388-6.86
		c-2.979-1.695-4.839-1.388-7.495,0.315c-19.205,12.312-38.425,24.606-57.821,36.613c-7.769,4.81-16.026,8.827-24.001,13.312
		c-5.648,3.177-11.275,6.405-16.766,9.841c-8.486,5.311-17.733,8.291-27.577,9.677c-6.536,0.92-12.255-0.837-17.035-5.303
		c-14.968-13.986-26.974-30.366-37.566-47.758c-10.03-16.469-17.72-33.96-19.602-53.445c-0.575-5.952-0.903-12.02-0.375-17.95
		c0.306-3.437,1.644-7.731,4.076-9.849c6.785-5.908,13.692-12.87,21.842-15.704c9.515-3.309,17.107-9.131,25.705-13.527
		c6.897-3.526,14.545-5.588,21.874-8.259c1.404-0.512,2.891-0.79,4.313-1.255c16.426-5.371,19.387-10.431,15.98-27.342
		c-0.194-0.962-0.384-2.105-0.999-2.774c-6.033-6.563-4.047-14.109-2.181-21.264c4.575-17.539,16.35-29.371,31.693-38.056
		c15.654-8.861,33.088-11.991,50.46-15.023c3.673-0.641,7.868,0.699,11.628,1.794c6.229,1.814,11.409,1.269,17.461-2.064
		c9.086-5.002,19.175-8.22,28.942-11.921c2.522-0.956,4.58,0.012,5.747,3.11c1.737,4.611,6.201,6.509,10.996,5.389
		c9.126-2.131,10.538-1.383,12.576,7.339c1.309,5.606,5.687,7.487,10.377,8.903c5.091,1.536,10.402,2.401,15.402,4.168
		c7.986,2.821,10.118,6.21,10.136,14.578C302.25,58.641,302.235,67.593,302.235,77.163z M102.777,117.681
		c35.873,35.965,61.913,75.986,63.777,129.666c1.56-1.945,2.808-2.888,3.187-4.102c0.775-2.485,1.951-5.325,1.394-7.641
		c-1-4.153,2.061-4.38,4.163-5.184c2.801-1.072,5.835-2.828,8.703,0.364c2.518,2.802,5.513,2.587,8.559,0.688
		c3.528-2.2,6.955-4.616,10.662-6.464c6.852-3.415,9.333-8.896,9.025-16.282c-1.743-41.853-18.896-76.613-48.598-105.535
		c-2.011-1.958-5.123-3.272-7.933-3.838c-13.993-2.819-25.694,3.125-31.729,16C116.485,113.336,108.769,111.382,102.777,117.681z
		 M61.844,210.016c6.07-4.767,3.839-9,0.76-13.426c-2.66-3.824-4.729-8.08-7.566-11.753c-5.995-7.762-11.993-15.57-18.616-22.782
		c-5.291-5.761-10.509-5.383-16.078,0.062c-5.548,5.424-8.391,12.142-7.735,19.831c1.425,16.693,5.315,32.844,12.066,48.222
		c2.615,5.957,5.895,7.615,12.249,7.021c2.495-0.233,3.56-1.136,3.099-3.824c-3.369-19.662-7.274-39.059-22.058-54.11
		c-1.052-1.071-1.702-4.211-1-4.974c1.341-1.457,4.129-3,5.708-2.518c3.032,0.926,6.523,2.618,8.267,5.09
		c7.068,10.018,13.866,20.262,20.09,30.821c2.751,4.667,4.93,9.186,10.172,11.744c2.115,1.032,3.642,3.743,4.895,5.992
		c8.384,15.046,12.525,31.464,15.142,48.326c0.52,3.352,1.68,5.232,5.475,4.375c3.489-0.788,6.415-2.295,5.077-6.345
		c-5.989-18.136-12.201-36.198-18.4-54.264C71.658,212.457,69.113,208.322,61.844,210.016z M322.072,186.645
		c0-9.151-0.132-18.304,0.065-27.45c0.079-3.687-1.521-5.865-4.876-5.023c-6.815,1.71-13.556,3.884-20.071,6.503
		c-1.512,0.608-2.803,3.761-2.827,5.759c-0.216,17.799-0.163,35.603-0.058,53.404c0.009,1.527,0.494,3.679,1.554,4.461
		c4.078,3.011,8.799,2.922,13.296,1.097c5.121-2.078,11.024-3.397,12.845-9.815c0.307-1.08,0.072-2.317,0.072-3.482
		C322.074,203.616,322.072,195.13,322.072,186.645z M77.065,286.52c0.418-0.272,0.836-0.544,1.255-0.815
		c-0.759-6.232-1.315-12.496-2.318-18.688c-2.185-13.493-5.232-26.811-12.25-38.71c-1.987-3.369-5.282-6.42-8.689-8.38
		c-3.916-2.252-6.609,0.109-5.838,4.5c3.729,21.23,11.472,40.866,23.723,58.643C73.926,284.492,75.674,285.383,77.065,286.52z
		 M109.375,60.303c2.636,5.325,6.551,5.674,10.865,4.591c5.561-1.395,9.53-5.302,9.437-9.636c-0.071-3.285-0.433-6.842-5.564-7.361
		C124.357,57.638,116.276,57.982,109.375,60.303z M128.462,95.514c-0.132-0.582-0.263-1.164-0.395-1.745
		c-7.929,1.314-15.859,2.627-23.788,3.941c-0.198,0.462-0.396,0.925-0.594,1.387c1.689,0.696,3.583,2.274,5.031,1.937
		C115.367,99.487,121.892,97.404,128.462,95.514z M104.798,147.318c-0.324-0.752-0.649-1.504-0.973-2.256
		c-7.44,3.17-14.88,6.34-22.321,9.51c0.316,0.731,0.631,1.462,0.947,2.193C89.9,153.616,97.349,150.467,104.798,147.318z
		 M92.855,169.652c8.771-0.236,20.511-5.95,23.362-10.725C107.858,162.765,100.357,166.209,92.855,169.652z M109.216,150.866
		c-0.212-0.558-0.424-1.116-0.637-1.674c-7.776,3.403-15.552,6.805-23.328,10.208c0.261,0.609,0.521,1.219,0.782,1.828
		C94.219,158.87,101.539,154.443,109.216,150.866z M128.903,181.71c-0.228-0.531-0.456-1.062-0.684-1.594
		c-7.459,3.091-14.918,6.182-22.377,9.273c0.271,0.636,0.543,1.273,0.814,1.909C115.064,190.408,121.41,184.726,128.903,181.71z
		 M120.403,168.073c-0.285-0.663-0.57-1.327-0.856-1.99c-7.314,3.056-14.628,6.112-21.942,9.168c0.31,0.722,0.62,1.444,0.929,2.166
		C105.825,174.301,113.114,171.187,120.403,168.073z M92.197,134.505c-0.268-0.501-0.536-1.003-0.803-1.504
		c-7.791,3.661-15.582,7.323-23.374,10.984c0.242,0.514,0.483,1.027,0.725,1.541C77.084,142.982,84.597,138.65,92.197,134.505z
		 M101.684,183.125c0.3,0.638,0.601,1.276,0.901,1.913c7.642-3.482,15.284-6.964,22.927-10.445
		c-0.312-0.662-0.623-1.324-0.935-1.986C116.946,176.112,109.315,179.618,101.684,183.125z M137,198.103
		c-0.327-0.704-0.653-1.408-0.98-2.113c-7.409,3.494-14.818,6.989-22.227,10.483c0.257,0.556,0.514,1.112,0.771,1.668
		C122.043,204.796,129.522,201.449,137,198.103z M63.89,139.843c0.278,0.61,0.557,1.221,0.835,1.831
		c7.201-3.126,14.402-6.251,21.604-9.377c-0.322-0.73-0.645-1.46-0.967-2.19C78.204,133.353,71.047,136.598,63.89,139.843z
		 M90.641,163.298c0.326,0.688,0.652,1.375,0.978,2.063c6.992-3.378,13.984-6.757,20.977-10.135
		c-0.287-0.62-0.575-1.241-0.862-1.861C104.702,156.676,97.671,159.987,90.641,163.298z M81.34,128.395
		c-0.22-0.614-0.44-1.228-0.659-1.842c-7.277,3.208-14.553,6.416-21.83,9.623c0.268,0.623,0.536,1.247,0.804,1.87
		C66.883,134.83,74.112,131.612,81.34,128.395z M76.938,151.18c0.253,0.577,0.506,1.154,0.758,1.731
		c7.31-3.372,14.62-6.743,21.93-10.115c-0.222-0.51-0.443-1.019-0.665-1.529C91.62,144.572,84.279,147.876,76.938,151.18z
		 M96.217,138.965c-0.267-0.608-0.533-1.217-0.8-1.825c-7.078,3.338-14.157,6.676-21.235,10.014c0.258,0.57,0.515,1.14,0.773,1.711
		C82.043,145.565,89.13,142.265,96.217,138.965z M132.45,188.842c-0.289-0.571-0.578-1.142-0.868-1.713
		c-7.185,3.648-14.369,7.297-21.554,10.945c0.25,0.493,0.5,0.985,0.749,1.478C118.002,195.983,125.226,192.413,132.45,188.842z
		 M144.035,219.293c-0.31-0.702-0.62-1.404-0.93-2.106c-6.076,3.055-12.152,6.111-18.229,9.166c0.257,0.523,0.514,1.047,0.771,1.57
		C131.777,225.047,137.906,222.17,144.035,219.293z M147.432,231.197c-0.324-0.766-0.648-1.533-0.972-2.299
		c-4.235,1.766-8.471,3.532-12.706,5.298c0.299,0.701,0.597,1.403,0.896,2.104C138.91,234.599,143.171,232.898,147.432,231.197z
		 M122.051,215.177c0.229,0.522,0.458,1.043,0.688,1.565c5.51-2.628,11.02-5.255,16.53-7.883c-0.256-0.531-0.512-1.063-0.768-1.594
		C133.017,209.903,127.534,212.54,122.051,215.177z M134.928,247.14c0.276,0.538,0.552,1.075,0.828,1.613
		c4.437-1.913,8.874-3.826,13.312-5.739c-0.253-0.563-0.506-1.126-0.759-1.689C143.849,243.263,139.389,245.202,134.928,247.14z"/>
	<path fill="#FFFFFF" d="M269.225,187.769c0,12.544,0.046,33.33-0.03,54.115c-0.021,5.746-2.291,7.212-7.051,3.961
		c-4.894-3.343-9.212-7.563-13.573-11.623c-0.917-0.853-1.241-2.665-1.305-4.059c-0.428-9.304-0.619-18.62-1.092-27.921
		c-0.172-3.387,0.681-5.355,4.137-6.773c8.272-3.395,10.987-6.852,10.11-12.914c-1.294-8.947-2.787-17.955-13.153-21.59
		c-1.262-0.442-2.863-2.377-2.856-3.612c0.11-19.286,0.35-38.574,0.912-57.851c0.061-2.079,2.05-5.5,3.613-5.792
		c2.065-0.386,5.272,1.103,6.801,2.835c6.427,7.281,11.498,15.026,11.52,25.627C267.299,141.292,268.336,160.409,269.225,187.769z"
		/>
	<path fill="#FFFFFF" d="M243.445,227.774c-9.424-1.982-15.255-7.643-22.746-12.044c3.145-6.154,5.99-12.414,9.609-18.189
		c0.684-1.091,4.622-0.807,6.738-0.14c1.906,0.601,4.658,2.46,4.821,3.999C242.751,209.761,242.95,218.196,243.445,227.774z"/>
	<path fill="#FFFFFF" d="M236.089,172.128c-1.774-3.64-0.273-5.567,3.299-6.62c7.517-2.215,14.143,2.182,15.456,10.594
		c0.458,2.938,0.215,5.981,0.394,8.969c0.239,3.982-0.96,6.748-5.331,7.599c-3.031,0.59-5.972,1.645-10.052,2.804
		c1.976-7.969,6.841-15.545-1.706-21.389C237.462,173.434,236.775,172.781,236.089,172.128z"/>
	<path fill="#FFFFFF" d="M293.202,76.145c-1.79,4.679,0.685,7.231,4.774,9.302c-5.919,0.539-12.609-1.366-14.027,6.463
		c-3.072-1.989-6.113-4.027-9.222-5.954c-4.672-2.897-4.572-5.847-0.091-9.098C280.656,72.491,286.678,75.057,293.202,76.145z"/>
	<path fill="#FFFFFF" d="M236.089,172.128c0.687,0.653,1.373,1.306,2.06,1.959c0.364,4.714,0.96,9.424,1.026,14.142
		c0.061,4.389-2.492,5.692-6.85,4.447c2.389-4.928,6.119-9.828-0.134-14.413l0.162,0.157
		C232.028,175.39,230.385,171.578,236.089,172.128z"/>
	<path fill="#FFFFFF" d="M232.191,178.262c0.199,2.897,0.864,5.872,0.39,8.655c-0.218,1.279-2.575,2.778-4.138,3.013
		c-0.856,0.129-2.44-2.014-3.026-3.413c-0.531-1.265-0.27-2.921-0.153-4.389c0.406-5.116,2.39-6.135,7.084-3.714
		C232.353,178.42,232.191,178.262,232.191,178.262z"/>
	<path fill="#FFFFFF" d="M168.606,226.119c0.676-1.905,1.135-3.197,1.591-4.479c-0.931-0.453-2.023-0.984-3.664-1.783
		c4.904-5.041,10.455-6.728,17.833-7.005c-1.16,1.833-1.758,3.023-2.587,4.022c-0.898,1.081-3.35,1.644-0.858,3.515
		c-0.908,0.989-1.635,2.435-2.758,2.877C175.316,224.387,172.293,225.057,168.606,226.119z"/>
	<path fill="#FFFFFF" d="M156.719,150.351c-3.309,4.41-9.723,7.012-16.478,6.684C141.614,151.808,150.698,148.123,156.719,150.351z"
		/>
	<path fill="#FFFFFF" d="M130.492,142.598c3.759-6.355,10.037-6.674,17.378-7.838C143.193,141.961,136.731,142.1,130.492,142.598z"
		/>
	<path fill="#FFFFFF" d="M151.758,142.041c-3.294,5.683-9.916,5.922-15.191,9.251C137.063,145.767,142.928,142.065,151.758,142.041z
		"/>
	<path fill="#FFFFFF" d="M161.129,202.695c4.346-5.438,10.211-6.291,15.964-7.479C177.427,199.879,169.86,203.576,161.129,202.695z"
		/>
	<path fill="#FFFFFF" d="M171.947,175.644c-4.872,5.683-10.777,7.048-17.048,8.768C156.559,179.206,163.005,175.88,171.947,175.644z
		"/>
	<path fill="#FFFFFF" d="M179.641,201.638c-0.753,3.517-10.277,7.996-15.631,7.352C165.932,204.83,174.414,200.841,179.641,201.638z
		"/>
	<path fill="#FFFFFF" d="M168.519,169.453c-3.863,5.809-10.318,5.737-15.138,8.87C152.798,174.187,160.837,169.523,168.519,169.453z
		"/>
	<path fill="#FFFFFF" d="M158.335,190.662c2.877-6.165,8.539-7.377,14.572-7.948C169.703,188.177,163.789,188.998,158.335,190.662z"
		/>
	<path fill="#FFFFFF" d="M176.599,190.718c-4.975,2.539-9.951,5.079-15.564,7.944c0.155-1.47-0.156-3.741,0.52-4.088
		c4.525-2.322,9.261-4.234,13.928-6.279C175.855,189.103,176.227,189.91,176.599,190.718z"/>
	<path fill="#FFFFFF" d="M123.207,134.067c4.178-4.643,9.96-5.809,15.908-6.644C134.718,131.535,129.558,134.01,123.207,134.067z"/>
	<path fill="#FFFFFF" d="M144.642,162.31c5.009-2.332,10.017-4.664,15.909-7.407c-2.048,5.875-8.915,9.4-15.283,8.922
		C145.059,163.32,144.851,162.815,144.642,162.31z"/>
	<path fill="#FFFFFF" d="M163.768,163.325c-2.924,5.845-8.733,6.473-14.324,7.547C152.286,164.987,158.855,165.687,163.768,163.325z
		"/>
	<path fill="#FFFFFF" d="M114.483,126.65c4.376-5.288,10.428-5.69,16.078-8.414C128.779,122.875,120.743,126.96,114.483,126.65z"/>
	<path fill="#FFFFFF" d="M166.039,215.705c1.529-4.383,9.501-8.523,14.963-8.226C180.25,210.414,178.236,211.537,166.039,215.705z"
		/>
	<path fill="#FFFFFF" d="M168.992,228.435c2.833-1.181,5.667-2.363,8.5-3.544c0.239,0.578,0.479,1.156,0.718,1.734
		c-2.078,3.012-5.083,3.778-8.511,3.519C169.464,229.574,169.228,229.004,168.992,228.435z"/>
</g>
</svg>
